<svg width="50" height="50" viewBox="0 0 50 50" fill="none" xmlns="http://www.w3.org/2000/svg">
<rect width="50" height="50" fill="#002DD0"/>
<path d="M27.372 6.42798C28.128 6.42798 28.128 7.00398 27.768 7.29198C26.4 8.33598 26.508 14.168 26.508 16.688C26.508 21.656 23.808 24.752 18.876 24.752C14.844 24.752 12 22.628 12 19.748C12 15.356 18.912 17.012 17.58 19.748C16.5 22.052 18.516 24.176 19.848 23.348C21.072 22.556 21.36 20.396 21.36 17.66C21.324 13.412 20.676 8.22798 19.632 7.29198C19.272 6.96798 19.236 6.42798 19.992 6.42798H27.372Z" fill="#F5F5F5"/>
<path d="M26.92 25.428C32.464 25.428 37 29.532 37 34.572C37 39.612 32.464 43.752 26.92 43.752H19.36C19 43.752 18.856 43.284 19.216 42.996C20.476 42.06 20.692 41.268 20.692 39.936V29.208C20.692 27.912 20.476 27.084 19.216 26.148C18.856 25.86 19 25.428 19.36 25.428H26.92ZM26.2 42.708C29.476 42.42 31.42 38.964 31.42 34.572C31.42 30.18 29.44 26.724 26.164 26.436C25.876 28.812 25.336 35.076 26.2 42.708Z" fill="#F5F5F5"/>
</svg>
